<svg version="1.2" xmlns="http://www.w3.org/2000/svg" xmlns:xlink="http://www.w3.org/1999/xlink" overflow="visible" preserveAspectRatio="none" viewBox="0 0 10.461538461538566 12.923076923076906" width="10.461538461538566" height="12.923076923076906"><g transform="translate(0, 0)"><defs><path id="path-1617926008231116" d="M5.538461538461593 13.53846153846152 C5.538461538461593 13.53846153846152 3.0769230769231077 13.53846153846152 3.0769230769231077 13.53846153846152 C3.0769230769231077 13.53846153846152 3.0769230769231077 3.0769230769230727 3.0769230769231077 3.0769230769230727 C3.0769230769231077 3.0769230769230727 11.692307692307809 3.0769230769230727 11.692307692307809 3.0769230769230727 C12.032175230665224 3.0769230769230727 12.307692307692431 2.8014059998958687 12.307692307692431 2.461538461538458 C12.307692307692431 2.1216709231810476 12.032175230665224 1.8461538461538438 11.692307692307809 1.8461538461538438 C11.692307692307809 1.8461538461538438 2.461538461538486 1.8461538461538438 2.461538461538486 1.8461538461538438 C2.1216709231810715 1.8461538461538438 1.8461538461538645 2.1216709231810476 1.8461538461538645 2.461538461538458 C1.8461538461538645 2.461538461538458 1.8461538461538645 14.153846153846134 1.8461538461538645 14.153846153846134 C1.8461538461538645 14.493713692203546 2.1216709231810715 14.76923076923075 2.461538461538486 14.76923076923075 C2.461538461538486 14.76923076923075 5.538461538461593 14.76923076923075 5.538461538461593 14.76923076923075 C5.878329076819008 14.76923076923075 6.1538461538462155 14.493713692203546 6.1538461538462155 14.153846153846134 C6.1538461538462155 13.813978615488725 5.878329076819008 13.53846153846152 5.538461538461593 13.53846153846152 Z" vector-effect="non-scaling-stroke"/></defs><g transform="translate(-1.8461538461538645, -1.8461538461538438)"><path d="M5.538461538461593 13.53846153846152 C5.538461538461593 13.53846153846152 3.0769230769231077 13.53846153846152 3.0769230769231077 13.53846153846152 C3.0769230769231077 13.53846153846152 3.0769230769231077 3.0769230769230727 3.0769230769231077 3.0769230769230727 C3.0769230769231077 3.0769230769230727 11.692307692307809 3.0769230769230727 11.692307692307809 3.0769230769230727 C12.032175230665224 3.0769230769230727 12.307692307692431 2.8014059998958687 12.307692307692431 2.461538461538458 C12.307692307692431 2.1216709231810476 12.032175230665224 1.8461538461538438 11.692307692307809 1.8461538461538438 C11.692307692307809 1.8461538461538438 2.461538461538486 1.8461538461538438 2.461538461538486 1.8461538461538438 C2.1216709231810715 1.8461538461538438 1.8461538461538645 2.1216709231810476 1.8461538461538645 2.461538461538458 C1.8461538461538645 2.461538461538458 1.8461538461538645 14.153846153846134 1.8461538461538645 14.153846153846134 C1.8461538461538645 14.493713692203546 2.1216709231810715 14.76923076923075 2.461538461538486 14.76923076923075 C2.461538461538486 14.76923076923075 5.538461538461593 14.76923076923075 5.538461538461593 14.76923076923075 C5.878329076819008 14.76923076923075 6.1538461538462155 14.493713692203546 6.1538461538462155 14.153846153846134 C6.1538461538462155 13.813978615488725 5.878329076819008 13.53846153846152 5.538461538461593 13.53846153846152 Z" style="stroke-width: 0; stroke-linecap: butt; stroke-linejoin: miter; fill: rgb(160, 160, 160);" vector-effect="non-scaling-stroke"/></g></g></svg>