<svg width="16" height="16" viewBox="0 0 16 16" fill="none" xmlns="http://www.w3.org/2000/svg">
<g clip-path="url(#clip0_120:8)">
<path d="M15.9432 11.1452L11.0448 5.36546C11.7059 4.0773 11.5872 2.4671 10.5872 1.29759C9.55327 0.0602806 7.85833 -0.312608 6.43457 0.246725C7.29899 0.839956 7.96002 1.72133 8.28206 2.7722C8.7736 4.36544 8.40071 6.06039 7.34984 7.28075C7.87527 7.34855 8.41766 7.2977 8.94309 7.12821L9.68887 7.99263C9.73972 8.06043 9.80751 8.09433 9.89226 8.09433L10.7736 8.16213C10.9431 8.17907 11.0618 8.31467 11.0448 8.48416L11.0279 8.67061C11.0279 8.75536 11.0448 8.82315 11.0957 8.89095C11.1804 8.99265 11.1974 9.14519 11.1126 9.24689L11.0618 9.34859C10.994 9.46723 10.994 9.60283 11.0787 9.70453L11.5194 10.23C11.5872 10.3147 11.7059 10.3486 11.8076 10.3317L11.8923 10.3147C11.994 10.2978 12.1126 10.3317 12.1804 10.4164L12.4855 10.7723C12.5194 10.8232 12.5703 10.8571 12.6381 10.874L13.0279 10.9757C13.0957 10.9927 13.1466 11.0266 13.1805 11.0774L13.2991 11.213C13.3669 11.2808 13.3839 11.3825 13.3669 11.4842L13.2144 12.0605C13.1974 12.1452 13.2144 12.2469 13.2822 12.3317L13.8245 12.9758C13.8754 13.0266 13.9432 13.0775 14.011 13.0775L15.5873 13.247C15.7568 13.2639 15.9093 13.1283 15.9093 12.9588L15.9941 11.3656C16.011 11.2808 15.9941 11.213 15.9432 11.1452Z" fill="white"/>
<path d="M5.99272 7.0433C7.11139 6.12803 7.63682 4.58563 7.17918 3.12798C6.58595 1.17879 4.53507 0.0940215 2.60283 0.687253C0.653641 1.28048 -0.431125 3.33137 0.162106 5.28056C0.619742 6.73821 1.9079 7.72128 3.34861 7.85688L3.6876 8.94164C3.70454 9.00944 3.75539 9.07724 3.84014 9.11114L4.61982 9.53487C4.77236 9.61962 4.82321 9.78912 4.73846 9.94166L4.65371 10.1112C4.61982 10.179 4.60287 10.2637 4.63677 10.3484C4.67066 10.484 4.61982 10.6196 4.51812 10.6874L4.45032 10.7044C4.33167 10.7722 4.29778 10.9078 4.33167 11.0434L4.53507 11.7044C4.56897 11.8061 4.65371 11.8908 4.75541 11.9078L4.84016 11.9247C4.94186 11.9417 5.04355 12.0264 5.0605 12.1281L5.1961 12.5688C5.21305 12.6197 5.24695 12.6875 5.29779 12.7214L5.63678 12.9587C5.68763 12.9926 5.72153 13.0434 5.73848 13.1112L5.78933 13.2807C5.82323 13.3655 5.80628 13.4671 5.73848 13.5519L5.36559 14.0265C5.31474 14.1112 5.28084 14.196 5.31474 14.2977L5.56899 15.1112C5.58593 15.179 5.63678 15.2468 5.70458 15.2807L7.07749 16.0604C7.23003 16.1452 7.41648 16.0943 7.48428 15.9418L8.1792 14.518C8.2131 14.4502 8.2131 14.3655 8.19615 14.2977L5.99272 7.0433ZM3.6198 4.0263C3.07741 4.19579 2.50113 3.8907 2.33164 3.34832C2.16214 2.80594 2.46723 2.22965 3.00962 2.06016C3.552 1.89066 4.12828 2.19576 4.29778 2.73814C4.46727 3.28052 4.16218 3.8568 3.6198 4.0263Z" fill="white"/>
</g>
<defs>
<clipPath id="clip0_120:8">
<rect width="16" height="16" fill="white"/>
</clipPath>
</defs>
</svg>
