<svg version="1.2" xmlns="http://www.w3.org/2000/svg" xmlns:xlink="http://www.w3.org/1999/xlink" overflow="visible" preserveAspectRatio="none" viewBox="0 0 82 82" width="82" height="82"><g transform="translate(0, 0)"><g transform="translate(0, 0) rotate(0)"><path d="M80,82h-78c-1.10457,0 -2,-0.89543 -2,-2v-78c0,-1.10457 0.89543,-2 2,-2h78c1.10457,0 2,0.89543 2,2v78c0,1.10457 -0.89543,2 -2,2zM4,4v13h74v-13z" style="stroke-width: 0; stroke-linecap: butt; stroke-linejoin: miter; fill: rgb(89, 89, 89);" vector-effect="non-scaling-stroke"/></g><defs><path id="path-161978656522263" d="M80,82h-78c-1.10457,0 -2,-0.89543 -2,-2v-78c0,-1.10457 0.89543,-2 2,-2h78c1.10457,0 2,0.89543 2,2v78c0,1.10457 -0.89543,2 -2,2zM4,4v13h74v-13z" vector-effect="non-scaling-stroke"/></defs></g></svg>