<svg width="100" height="100" viewBox="0 0 100 100" fill="none" xmlns="http://www.w3.org/2000/svg">
<path d="M49.1771 0.192355L14.2896 12.9844C12.9476 13.4758 11.9876 14.8624 12.0001 16.2915V56.9935C12.0001 66.5228 17.3786 74.3898 24.3929 81.0872C31.4071 87.7849 40.2309 93.5992 48.3412 99.3663C49.5178 100.211 51.2349 100.211 52.4114 99.3663C60.5227 93.5982 69.3464 87.7846 76.3597 81.0872C83.3736 74.3895 88.7526 66.5217 88.7526 56.9935V16.2915C88.765 14.8624 87.805 13.4758 86.4631 12.9844L51.5756 0.192355C50.7276 -0.138882 49.6086 0.0231416 49.1771 0.192355ZM50.3763 7.20619V92.2076C42.778 86.8492 35.0423 81.5892 29.2258 76.0353C22.8842 69.9796 18.9776 63.8993 18.9776 56.9926V18.7249L50.3763 7.20619Z" fill="#e7e7e7"/>
</svg>
