<svg version="1.2" xmlns="http://www.w3.org/2000/svg" xmlns:xlink="http://www.w3.org/1999/xlink" overflow="visible" preserveAspectRatio="none" viewBox="0 0 12 15.999999999999998" width="12" height="15.999999999999998"><g transform="translate(0, 0)"><g transform="translate(-4.440892098500626e-16, 7.771561172376096e-16) rotate(0)"><path d="M8.18759,0h-4.37517c-0.28317,0.00496 -0.51031,0.23935 -0.51083,0.52713v1.24706h-2.782c-0.28518,0.00489 -0.51511,0.2388 -0.51959,0.52858v2.22723c0,0.28503 0.23908,0.50226 0.51959,0.50226h0.33968l0.71403,10.47487c0.01844,0.27055 0.23981,0.49287 0.5067,0.49287h7.83997c0.26692,0 0.48825,-0.22232 0.50673,-0.49287l0.7141,-10.47487h0.33968c0.28048,0 0.51952,-0.21723 0.51952,-0.50226v-2.22723c-0.00448,-0.28978 -0.23441,-0.52369 -0.51959,-0.52858h-2.782v-1.24706c-0.00049,-0.28778 -0.22765,-0.52219 -0.51083,-0.52713zM4.31746,1.03226h3.36508v0.74194h-3.36508zM9.44606,14.96774h-6.89206l-0.67644,-9.93548h8.24489zM10.98413,4h-9.96825v-1.19355h9.96825zM6.8254,13.06452v-6.29032h1.01587v6.29032zM4.15873,13.06452v-6.29032h1.01587v6.29032z" style="stroke-width: 0; stroke-linecap: butt; stroke-linejoin: miter; fill: rgb(160, 160, 160);" vector-effect="non-scaling-stroke"/></g><defs><path id="path-16160108738272649" d="M8.18759,0h-4.37517c-0.28317,0.00496 -0.51031,0.23935 -0.51083,0.52713v1.24706h-2.782c-0.28518,0.00489 -0.51511,0.2388 -0.51959,0.52858v2.22723c0,0.28503 0.23908,0.50226 0.51959,0.50226h0.33968l0.71403,10.47487c0.01844,0.27055 0.23981,0.49287 0.5067,0.49287h7.83997c0.26692,0 0.48825,-0.22232 0.50673,-0.49287l0.7141,-10.47487h0.33968c0.28048,0 0.51952,-0.21723 0.51952,-0.50226v-2.22723c-0.00448,-0.28978 -0.23441,-0.52369 -0.51959,-0.52858h-2.782v-1.24706c-0.00049,-0.28778 -0.22765,-0.52219 -0.51083,-0.52713zM4.31746,1.03226h3.36508v0.74194h-3.36508zM9.44606,14.96774h-6.89206l-0.67644,-9.93548h8.24489zM10.98413,4h-9.96825v-1.19355h9.96825zM6.8254,13.06452v-6.29032h1.01587v6.29032zM4.15873,13.06452v-6.29032h1.01587v6.29032z" vector-effect="non-scaling-stroke"/></defs></g></svg>